<?xml version="1.0" encoding="UTF-8" standalone="no"?>
<!-- Created with Inkscape (http://www.inkscape.org/) -->

<svg
   width="9355.6611mm"
   height="9255.0312mm"
   viewBox="0 0 9355.6613 9255.0314"
   version="1.1"
   id="svg76"
   inkscape:version="1.1.1 (3bf5ae0d25, 2021-09-20)"
   sodipodi:docname="Love-hacker-family-v2-2021-12-10.svg"
   inkscape:export-filename="/home/gater_byte/Heart-Hacker-Family-Logo-wtext-big-wol.png"
   inkscape:export-xdpi="25.513901"
   inkscape:export-ydpi="25.513901"
   xmlns:inkscape="http://www.inkscape.org/namespaces/inkscape"
   xmlns:sodipodi="http://sodipodi.sourceforge.net/DTD/sodipodi-0.dtd"
   xmlns="http://www.w3.org/2000/svg"
   xmlns:svg="http://www.w3.org/2000/svg">
  <sodipodi:namedview
     id="namedview78"
     pagecolor="#ffffff"
     bordercolor="#666666"
     borderopacity="1.0"
     inkscape:pageshadow="2"
     inkscape:pageopacity="0.0"
     inkscape:pagecheckerboard="0"
     inkscape:document-units="mm"
     showgrid="false"
     inkscape:zoom="0.020051236"
     inkscape:cx="12642.612"
     inkscape:cy="17604.9"
     inkscape:window-width="2256"
     inkscape:window-height="1435"
     inkscape:window-x="0"
     inkscape:window-y="0"
     inkscape:window-maximized="1"
     inkscape:current-layer="layer1"
     fit-margin-top="0"
     fit-margin-left="0"
     fit-margin-right="0"
     fit-margin-bottom="0" />
  <defs
     id="defs73">
    <rect
       x="2.3687098"
       y="323.38565"
       width="417.78717"
       height="252.02438"
       id="rect39509" />
    <rect
       x="18.557823"
       y="186.66988"
       width="374.17526"
       height="292.50375"
       id="rect7633" />
    <clipPath
       clipPathUnits="userSpaceOnUse"
       id="clipPath15443">
      <rect
         style="fill:#4d4d4d;stroke:#ffffff;stroke-width:0.115;stroke-linejoin:round;stroke-miterlimit:4;stroke-dasharray:none"
         id="rect15445"
         width="143.66867"
         height="86.016533"
         x="55.519157"
         y="-3.4511056" />
    </clipPath>
    <clipPath
       clipPathUnits="userSpaceOnUse"
       id="clipPath15447">
      <rect
         style="fill:#4d4d4d;stroke:#ffffff;stroke-width:0.115;stroke-linejoin:round;stroke-miterlimit:4;stroke-dasharray:none"
         id="rect15449"
         width="143.66867"
         height="86.016533"
         x="55.519157"
         y="-3.4511056" />
    </clipPath>
    <clipPath
       clipPathUnits="userSpaceOnUse"
       id="clipPath15451">
      <rect
         style="fill:#4d4d4d;stroke:#ffffff;stroke-width:0.115;stroke-linejoin:round;stroke-miterlimit:4;stroke-dasharray:none"
         id="rect15453"
         width="143.66867"
         height="86.016533"
         x="55.519157"
         y="-3.4511056" />
    </clipPath>
    <clipPath
       clipPathUnits="userSpaceOnUse"
       id="clipPath15455">
      <rect
         style="fill:#4d4d4d;stroke:#ffffff;stroke-width:0.115;stroke-linejoin:round;stroke-miterlimit:4;stroke-dasharray:none"
         id="rect15457"
         width="143.66867"
         height="86.016533"
         x="55.519157"
         y="-3.4511056" />
    </clipPath>
    <clipPath
       clipPathUnits="userSpaceOnUse"
       id="clipPath15459">
      <rect
         style="fill:#4d4d4d;stroke:#ffffff;stroke-width:0.115;stroke-linejoin:round;stroke-miterlimit:4;stroke-dasharray:none"
         id="rect15461"
         width="143.66867"
         height="86.016533"
         x="55.519157"
         y="-3.4511056" />
    </clipPath>
    <rect
       x="18.557823"
       y="186.66988"
       width="374.17526"
       height="292.50375"
       id="rect7633-1" />
    <rect
       x="2.3687098"
       y="323.38565"
       width="417.78717"
       height="252.02438"
       id="rect39509-3" />
    <rect
       x="2.3687098"
       y="323.38565"
       width="417.78717"
       height="252.02438"
       id="rect39509-3-2" />
  </defs>
  <g
     inkscape:groupmode="layer"
     id="layer16"
     inkscape:label="Background"
     style="display:inline"
     transform="translate(-696.19797,8970.9923)">
    <rect
       style="fill:#000000;stroke:#ffffff;stroke-width:17.6464;stroke-linejoin:round;stroke-miterlimit:4;stroke-dasharray:none"
       id="rect80912"
       width="9433.8223"
       height="9304.3193"
       x="646.21899"
       y="-8982.7725" />
  </g>
  <g
     inkscape:groupmode="layer"
     id="layer15"
     inkscape:label="People"
     style="display:inline"
     transform="translate(-696.19797,8970.9923)">
    <path
       d="m 125.3022,76.95742 c -0.54336,-0.22738 -1.18024,-0.91921 -1.41529,-1.53742 -0.27954,-0.73529 -0.26983,-8.30045 0.028,-21.8758 0.25052,-11.41349 0.38338,-21.35304 0.29528,-21.44115 -0.0881,-0.088 -0.40281,2.43035 -0.69936,5.59655 -0.29655,3.1662 -0.7491,6.53884 -1.00566,6.84799 -0.6547,0.78887 -2.77689,0.70008 -3.6288,-0.15186 -0.79993,-0.79991 -0.82141,-0.96178 0.87582,-15.50294 1.30783,-11.20509 0.5447,-9.95891 11.16274,-9.95891 10.70019,0 9.78011,-1.07989 11.29842,13.26066 1.01069,9.5461 1.07056,11.6703 0.34928,12.39158 -0.70725,0.70724 -2.74365,0.66343 -3.35415,-0.0722 -0.27189,-0.32763 -0.6869,-2.61632 -0.92221,-5.08601 -0.23532,-2.46967 -0.55258,-4.6065 -0.70504,-4.74852 -0.30947,-0.28829 0.12993,28.09529 0.54789,35.3851 l 0.26763,4.66863 -1.32998,1.32998 c -1.62931,1.62931 -3.23026,1.7178 -4.6889,0.25915 l -1.07082,-1.07082 V 62.82385 c 0,-7.81446 -0.16192,-12.52766 -0.43627,-12.6972 -0.28701,-0.17738 -0.43626,4.05113 -0.43626,12.35941 0,11.38652 -0.075,12.71951 -0.76346,13.5486 -0.89232,1.07474 -2.96142,1.51174 -4.36897,0.92273 z m 4.05996,-59.74344 c -2.47698,-0.62919 -4.16268,-2.88534 -4.16268,-5.57132 0,-4.376489 4.09521,-6.412429 8.03635,-4.504559 4.76329,2.30587 4.09886,9.062149 -1.03136,10.487339 -0.85343,0.23709 -1.64987,-0.11979 -1.76984,-0.14629 -0.12004,-0.0265 -0.60258,-0.14576 -1.07247,-0.26517 z"
       style="display:inline;fill:#000000;stroke:#ffffff;stroke-width:0.715;stroke-miterlimit:4;stroke-dasharray:none"
       id="path204-3-1"
       sodipodi:nodetypes="csccssssssssssscsscsssccccssssc"
       clip-path="url(#clipPath15459)"
       transform="matrix(114.95721,0,0,114.95721,-10820.47,-9207.4525)" />
    <path
       d="m 143.32273,93.97698 c -0.53459,-0.25802 -1.12355,-0.88275 -1.30879,-1.38833 -0.18525,-0.50556 -0.33679,-11.71669 -0.33679,-24.91363 0,-27.80395 0.50864,-24.81107 -5.22711,-30.75652 -3.97908,-4.12456 -5.02507,-5.50374 -5.02507,-6.62567 0,-0.76198 4.29685,-8.19148 5.56667,-9.62512 1.37341,-1.5506 4.0311,-0.38518 4.0311,1.76765 0,0.51451 -0.9163,2.42029 -2.03625,4.23506 l -2.03625,3.29955 1.70796,1.74912 c 0.9394,0.96201 2.86865,2.32911 4.28725,3.03799 2.45335,1.22596 2.85159,1.28889 8.1567,1.28889 8.15487,0 7.57419,-0.83179 9.14691,13.10213 0.68972,6.11075 1.25944,11.24367 1.26605,11.40648 0.0552,1.3641 -3.33785,2.2331 -4.28119,1.09645 -0.2605,-0.31389 -0.68464,-2.80804 -0.9425,-5.54257 -0.25787,-2.73451 -0.55956,-5.06254 -0.67043,-5.17341 -0.2583,-0.25828 -0.27081,-1.32174 0.25036,21.26322 0.24567,10.64587 0.32872,19.72775 0.18457,20.18191 -0.38337,1.20791 -2.63154,2.23521 -4.15791,1.89996 -2.52034,-0.55356 -2.58626,-0.92844 -2.58626,-14.70497 0,-8.07885 -0.15549,-12.55454 -0.43628,-12.55454 -0.28082,0 -0.43625,4.51465 -0.43625,12.67144 V 92.3635 l -1.07083,1.07082 c -1.13539,1.13539 -2.45173,1.31195 -4.04566,0.54266 z m 4.21848,-59.21721 c -2.75315,-0.83542 -4.33715,-2.83531 -4.33715,-5.47587 0,-5.74701 8.09193,-7.8568 10.71073,-2.79259 1.52373,2.94654 0.35981,6.5088 -2.55974,7.83431 -2.00066,0.90833 -2.18281,0.92907 -3.81384,0.43415 z"
       style="display:inline;fill:#ffcc00;stroke:#ffffff;stroke-width:0.415;stroke-miterlimit:4;stroke-dasharray:none"
       id="path934-6-2"
       clip-path="url(#clipPath15455)"
       transform="matrix(114.95721,0,0,114.95721,-10820.47,-9207.4525)" />
    <path
       d="m 162.73684,113.14561 c 1.37835,-0.50681 2.18132,-1.61038 2.18132,-2.99794 0,-0.78494 -1.07485,-4.15734 -2.38853,-7.49419 -5.81501,-14.77042 -7.82137,-25.51306 -6.90406,-36.96645 l 0.3492,-4.36001 2.51883,3.78854 c 1.38536,2.08373 2.89917,3.90927 3.364,4.05683 0.46485,0.14756 2.8651,-0.34451 5.3339,-1.09342 2.4688,-0.7489 4.84353,-1.46362 5.27718,-1.58824 1.06999,-0.3075 1.73727,-2.15466 1.1648,-3.22434 -0.87788,-1.64034 -1.81379,-1.73599 -5.6113,-0.57349 -1.97738,0.60532 -3.82827,1.00928 -4.11309,0.89771 -0.28481,-0.11163 -1.38187,-1.84563 -2.4379,-3.85342 -4.05864,-7.71656 -4.30086,-8.823394 -8.68996,-8.219704 -4.11537,0.56604 -2.44428,1.154674 -4.21335,1.297944 -4.04367,0.32756 -6.03215,2.38405 -8.93602,8.0627 -1.22492,2.3954 -2.37532,4.50344 -2.55647,4.6846 -0.18112,0.18111 -1.8924,-0.15615 -3.80284,-0.74954 -1.91046,-0.59338 -3.78667,-1.08182 -4.16939,-1.08542 -1.67658,-0.0164 -2.87779,3.20053 -1.5934,4.26648 0.7855,0.65191 9.37117,3.14344 10.83215,3.14344 1.29251,0 2.23624,-1.10906 4.91873,-5.78049 1.95382,-3.40248 1.94917,-3.58243 0.22833,8.83434 -0.48217,3.47919 -1.15846,7.97115 -1.50284,9.98212 -1.19121,6.95581 -0.31597,24.40106 1.31461,26.20285 1.44583,1.59761 4.23904,1.12186 5.28465,-0.90014 0.54843,-1.06053 0.58025,-2.15281 0.20497,-7.03638 -0.24433,-3.179534 -0.55936,-6.69304 -0.70004,-7.80786 -0.23902,-1.89386 0.42138,-9.56098 0.98939,-11.48649 0.15647,-0.53072 0.878,1.64801 1.87796,5.67143 1.70077,6.84307 3.19083,11.38561 6.19416,18.88331 1.41776,3.53936 2.06048,4.63132 3.01721,5.12607 1.29204,0.66815 1.53619,0.69847 2.5678,0.31916 z M 152.31787,51.12106 c 1.48833,-1.48833 1.69373,-1.94309 1.69373,-3.74999 0,-2.64769 -1.04466,-4.38464 -3.29112,-5.47213 -2.18449,-1.05749 -2.56203,-1.05869 -4.85987,-0.0148 -2.14828,0.97535 -3.19185,2.70162 -3.19185,5.27996 0,3.46585 2.28131,5.65133 5.89912,5.65133 1.80691,0 2.26165,-0.2054 3.74999,-1.69374 z"
       style="display:inline;fill:#008000;stroke:#ffffff;stroke-width:0.415;stroke-miterlimit:4;stroke-dasharray:none"
       id="path484-7-7"
       clip-path="url(#clipPath15451)"
       sodipodi:nodetypes="sscscsssssscsscssscssssssssscsssscsscsscc"
       transform="matrix(114.95721,0,0,114.95721,-10820.47,-9207.4525)" />
    <path
       d="m 105.03151,108.88307 c -2.39298,-0.96996 -2.41043,-1.69905 -0.42856,-17.90784 1.61555,-13.21269 1.32131,-12.06503 3.04164,-11.86421 1.67714,0.19582 3.29161,-1.06209 3.29161,-2.56461 0,-0.49757 -1.10218,-3.02778 -2.44931,-5.62268 l -2.44932,-4.71805 2.44932,-4.56626 c 2.35035,-4.38177 3.02457,-6.90325 2.01305,-7.5284 -0.78977,-0.48811 -0.45465,-1.15528 0.43799,-0.87199 0.74706,0.23712 2.36428,0.51583 3.61971,0.62381 0.69399,0.0597 1.61383,3.10538 1.61888,5.36024 0.003,1.26744 0.40067,3.87496 0.88412,5.79451 0.70553,2.80149 0.95944,5.90032 1.28684,15.70546 0.22434,6.71843 0.41545,15.19495 0.42466,18.836643 l 0.0168,6.621347 -1.14949,0.90418 c -1.54212,1.21304 -3.01782,1.13913 -4.37606,-0.21908 l -1.12327,-1.12326 0.17405,-10.98298 c 0.0956,-6.04064 0.12581,-10.68852 0.0669,-10.32861 -0.0589,0.35991 -0.71987,5.55855 -1.46888,11.55248 -0.74901,5.99391 -1.53669,11.22477 -1.75039,11.62408 -0.28794,0.53804 -2.86067,1.87531 -3.19872,1.66269 -0.0242,-0.0148 -0.44343,-0.18957 -0.93164,-0.38748 z m 1.23187,-30.97532 c -0.42925,-0.46876 -2.03424,-3.29719 -3.56663,-6.28542 l -2.7862,-5.43314 2.93921,-5.60276 c 3.53423,-6.73698 3.91666,-7.21305 5.65684,-7.04178 1.00017,0.0984 1.42765,0.4291 1.75109,1.35443 0.37301,1.06714 0.0986,1.87351 -2.13907,6.28618 l -2.56694,5.06201 2.48553,4.83851 c 1.36706,2.66118 2.48041,5.08392 2.47415,5.38383 -0.0178,0.84851 -1.66208,2.29039 -2.61199,2.29039 -0.47055,0 -1.20674,-0.38352 -1.63599,-0.85225 z m 12.38014,-4.64005 c -0.15714,-2.85787 -0.67442,-6.86486 -1.14958,-8.90437 -0.47515,-2.03952 -0.86897,-4.64704 -0.87512,-5.79448 -0.007,-1.14747 -0.29448,-2.76426 -0.64073,-3.59294 l -0.62952,-1.50667 1.04322,0.68353 c 0.57377,0.37597 1.34383,1.50198 1.71123,2.50227 0.36742,1.00031 1.26537,3.48745 1.99546,5.52698 l 1.32743,3.70825 -0.52229,5.39014 c -0.36417,3.7582 -0.74214,5.66164 -1.24837,6.28682 -0.68971,0.85175 -0.74036,0.6364 -1.01173,-4.29953 z M 109.9424,52.08888 c -2.8333,-2.11341 -3.35311,-5.9149 -1.15162,-8.42225 3.17164,-3.6123 8.80706,-2.486 10.01546,2.00171 1.05996,3.93635 -1.59381,7.35831 -5.68872,7.33545 -1.29177,-0.007 -2.37766,-0.3201 -3.17512,-0.91491 z"
       style="display:inline;fill:#0000ff;stroke:#ffffff;stroke-width:0.515;stroke-linejoin:round;stroke-miterlimit:4;stroke-dasharray:none"
       id="path1183-5-0"
       clip-path="url(#clipPath15447)"
       transform="matrix(114.95721,0,0,114.95721,-10759.639,-9207.4525)" />
    <path
       d="m 124.99751,112.25518 c -0.54336,-0.22738 -1.18024,-0.91921 -1.41529,-1.53742 -0.27954,-0.73529 -0.26983,-8.30045 0.028,-21.875734 0.25052,-11.413482 0.38338,-21.353032 0.29528,-21.441142 -0.0881,-0.088 -0.40281,2.43035 -0.69936,5.59655 -0.29655,3.1662 -0.7491,6.53884 -1.00566,6.84799 -0.6547,0.78887 -2.77689,0.70008 -3.6288,-0.15186 -0.79993,-0.79991 -0.82141,-0.96178 0.87582,-15.50294 1.30783,-11.20509 0.81092,-10.172321 11.41446,-10.727024 8.14268,-0.425968 9.19565,-0.367196 11.0467,14.028774 1.22423,9.52107 1.07056,11.6703 0.34928,12.39158 -0.70725,0.70724 -2.74365,0.66343 -3.35415,-0.0722 -0.27189,-0.32763 -0.6869,-2.61632 -0.92221,-5.08601 -0.23532,-2.46967 -0.55258,-4.6065 -0.70504,-4.74852 -0.30947,-0.28829 0.12993,28.095228 0.54789,35.385026 l 0.26763,4.66863 -1.32998,1.32998 c -1.62931,1.62931 -3.23026,1.7178 -4.6889,0.25915 l -1.07082,-1.07082 V 98.121622 c 0,-7.814415 -0.16192,-12.527598 -0.43627,-12.697138 -0.28701,-0.17738 -0.43626,4.051116 -0.43626,12.359351 0,11.386505 -0.075,12.719495 -0.76346,13.548585 -0.89232,1.07474 -2.96142,1.51174 -4.36897,0.92273 z m 4.05996,-59.743366 c -2.47698,-0.62919 -4.16268,-2.88534 -4.16268,-5.57132 0,-4.376489 4.09521,-6.412429 8.03635,-4.504559 4.76329,2.30587 4.09886,9.062149 -1.03136,10.487339 -0.85343,0.23709 -1.64987,-0.11979 -1.76984,-0.14629 -0.12004,-0.0265 -0.60258,-0.14576 -1.07247,-0.26517 z"
       style="display:inline;fill:#ff0000;stroke:#ffffff;stroke-width:0.415;stroke-miterlimit:4;stroke-dasharray:none"
       id="path204-3-1-3"
       sodipodi:nodetypes="csccssssssssssscsscsssccccssssc"
       clip-path="url(#clipPath15443)"
       transform="matrix(114.95721,0,0,114.95721,-10820.47,-9207.4525)" />
  </g>
  <g
     inkscape:groupmode="layer"
     id="layer18"
     inkscape:label="Alt-Text"
     style="display:none"
     transform="translate(-848.21567,-123.97611)">
    <text
       xml:space="preserve"
       transform="matrix(26.223655,-0.23968599,0.26789734,23.462133,-3986.5283,-7492.1908)"
       id="text39507"
       style="font-style:normal;font-weight:normal;font-size:36.194px;line-height:1.25;font-family:sans-serif;white-space:pre;shape-inside:url(#rect39509-3);display:inline;fill:#000000;fill-opacity:1;stroke:#ffffff;stroke-width:0.789849;stroke-miterlimit:4;stroke-dasharray:none"
       x="137.8418"
       y="0"><tspan
         x="176.36951"
         y="359.75974"
         id="tspan198715"><tspan
           style="font-weight:bold;font-family:'Noto Sans CJK TC';-inkscape-font-specification:'Noto Sans CJK TC Bold';text-align:center;text-anchor:middle"
           id="tspan198709"> </tspan><tspan
           style="fill:#ff0000"
           id="tspan198711">&lt;3</tspan><tspan
           style="font-weight:bold;font-family:'Noto Sans CJK TC';-inkscape-font-specification:'Noto Sans CJK TC Bold';text-align:center;text-anchor:middle"
           id="tspan198713"> 
</tspan></tspan><tspan
         x="185.38401"
         y="409.354"
         id="tspan198719"><tspan
           style="font-weight:bold;font-family:'Noto Sans CJK TC';-inkscape-font-specification:'Noto Sans CJK TC Bold';text-align:center;text-anchor:middle"
           id="tspan198717">UR
</tspan></tspan><tspan
         x="154.07628"
         y="458.94827"
         id="tspan198723"><tspan
           style="font-weight:bold;font-family:'Noto Sans CJK TC';-inkscape-font-specification:'Noto Sans CJK TC Bold';text-align:center;text-anchor:middle"
           id="tspan198721">H4x3r 
</tspan></tspan><tspan
         x="172.57137"
         y="508.54254"
         id="tspan198727"><tspan
           style="font-weight:bold;font-family:'Noto Sans CJK TC';-inkscape-font-specification:'Noto Sans CJK TC Bold';text-align:center;text-anchor:middle"
           id="tspan198725">F4m</tspan></tspan></text>
  </g>
  <g
     inkscape:groupmode="layer"
     id="layer19"
     inkscape:label="Love Your Hacker Family"
     transform="translate(-848.21567,-123.97611)"
     style="display:inline">
    <text
       xml:space="preserve"
       transform="matrix(18.949776,18.128527,-16.181191,16.991543,10099.747,-7963.7589)"
       id="text39507-0"
       style="font-style:normal;font-weight:normal;font-size:36.194px;line-height:1.25;font-family:sans-serif;white-space:pre;shape-inside:url(#rect39509-3-2);display:inline;fill:#000000;fill-opacity:1;stroke:#ffffff;stroke-width:0.789849;stroke-miterlimit:4;stroke-dasharray:none"
       x="137.8418"
       y="0"><tspan
         x="140.7931"
         y="359.75974"
         id="tspan198735"><tspan
           style="font-weight:bold;font-family:'Noto Sans CJK TC';-inkscape-font-specification:'Noto Sans CJK TC Bold';text-align:center;text-anchor:middle"
           id="tspan198729"> </tspan><tspan
           style="font-weight:900;font-family:'Noto Sans CJK TC';-inkscape-font-specification:'Noto Sans CJK TC Heavy';fill:#ff0000"
           id="tspan198731">&lt;3</tspan><tspan
           style="font-weight:bold;font-family:'Noto Sans CJK TC';-inkscape-font-specification:'Noto Sans CJK TC Bold';text-align:center;text-anchor:middle"
           id="tspan198733"> Your
</tspan></tspan><tspan
         x="84.837293"
         y="409.354"
         id="tspan198739"><tspan
           style="font-weight:bold;font-family:'Noto Sans CJK TC';-inkscape-font-specification:'Noto Sans CJK TC Bold';text-align:center;text-anchor:middle"
           id="tspan198737">Hacker Family</tspan></tspan></text>
  </g>
  <g
     inkscape:label="Hacker Glider"
     inkscape:groupmode="layer"
     id="layer1"
     style="display:inline"
     transform="translate(-696.19797,8970.9923)">
    <g
       id="dots"
       style="fill:#000000;stroke:#ffffff;stroke-width:0.109923;stroke-miterlimit:4;stroke-dasharray:none"
       transform="matrix(994.54961,0,0,994.54961,1278.373,-8829.6257)">
      <circle
         cx="3"
         cy="1"
         id="C1"
         r="0.69999999"
         style="fill:#000000;stroke:#ffffff;stroke-width:0.109923;stroke-miterlimit:4;stroke-dasharray:none" />
      <circle
         cx="5"
         cy="3"
         id="ellipse32"
         r="0.69999999"
         style="fill:#000000;stroke:#ffffff;stroke-width:0.109923;stroke-miterlimit:4;stroke-dasharray:none" />
      <circle
         cx="1"
         cy="5"
         id="ellipse34"
         r="0.69999999"
         style="fill:#000000;stroke:#ffffff;stroke-width:0.109923;stroke-miterlimit:4;stroke-dasharray:none" />
      <circle
         cx="3"
         cy="5"
         id="ellipse36"
         r="0.69999999"
         style="fill:#000000;stroke:#ffffff;stroke-width:0.109923;stroke-miterlimit:4;stroke-dasharray:none" />
      <circle
         cx="5"
         cy="5"
         id="ellipse38"
         r="0.69999999"
         style="fill:#000000;stroke:#ffffff;stroke-width:0.109923;stroke-miterlimit:4;stroke-dasharray:none" />
    </g>
  </g>
</svg>
